<svg width="0" height="0" class="hidden">
  <symbol viewBox="0 0 41 17" xmlns="http://www.w3.org/2000/svg" id="googlepay_icon">
    <title>GPay Brand Mark</title>
    <g fill="none" fill-rule="evenodd">
      <path d="M19.526 2.635v4.083h2.518c.6 0 1.096-.202 1.488-.605.403-.402.605-.882.605-1.437 0-.544-.202-1.018-.605-1.422-.392-.413-.888-.62-1.488-.62h-2.518zm0 5.52v4.736h-1.504V1.198h3.99c1.013 0 1.873.337 2.582 1.012.72.675 1.08 1.497 1.08 2.466 0 .991-.36 1.819-1.08 2.482-.697.665-1.559.996-2.583.996h-2.485v.001zm7.668 2.287c0 .392.166.718.499.98.332.26.722.391 1.168.391.633 0 1.196-.234 1.692-.701.497-.469.744-1.019.744-1.65-.469-.37-1.123-.555-1.962-.555-.61 0-1.12.148-1.528.442-.409.294-.613.657-.613 1.093m1.946-5.815c1.112 0 1.989.297 2.633.89.642.594.964 1.408.964 2.442v4.932h-1.439v-1.11h-.065c-.622.914-1.45 1.372-2.486 1.372-.882 0-1.621-.262-2.215-.784-.594-.523-.891-1.176-.891-1.96 0-.828.313-1.486.94-1.976s1.463-.735 2.51-.735c.892 0 1.629.163 2.206.49v-.344c0-.522-.207-.966-.621-1.33a2.132 2.132 0 0 0-1.455-.547c-.84 0-1.504.353-1.995 1.062l-1.324-.834c.73-1.045 1.81-1.568 3.238-1.568m11.853.262l-5.02 11.53H34.42l1.864-4.034-3.302-7.496h1.635l2.387 5.749h.032l2.322-5.75z" fill="#5F6368"></path>
      <path d="M13.448 7.134c0-.473-.04-.93-.116-1.366H6.988v2.588h3.634a3.11 3.11 0 0 1-1.344 2.042v1.68h2.169c1.27-1.17 2.001-2.9 2.001-4.944" fill="#4285F4"></path>
      <path d="M6.988 13.7c1.816 0 3.344-.595 4.459-1.621l-2.169-1.681c-.603.406-1.38.643-2.29.643-1.754 0-3.244-1.182-3.776-2.774H.978v1.731a6.728 6.728 0 0 0 6.01 3.703" fill="#34A853"></path>
      <path d="M3.212 8.267a4.034 4.034 0 0 1 0-2.572V3.964H.978A6.678 6.678 0 0 0 .261 6.98c0 1.085.26 2.11.717 3.017l2.234-1.731z" fill="#FABB05"></path>
      <path d="M6.988 2.921c.992 0 1.88.34 2.58 1.008v.001l1.92-1.918C10.324.928 8.804.262 6.989.262a6.728 6.728 0 0 0-6.01 3.702l2.234 1.731c.532-1.592 2.022-2.774 3.776-2.774" fill="#E94235"></path>
      <path d="M0 0h41.285v18H0z"></path>
    </g>
  </symbol>
  <symbol xmlns="http://www.w3.org/2000/svg" viewBox="0 0 504 504" id="paypal_icon">
    <path d="M389.6 221.2h-27.2c-1.6 0-3.2 1.6-4 3.2l-11.2 70.4c0 1.6.8 2.4 2.4 2.4H364c1.6 0 2.4-.8 2.4-2.4l3.2-20c0-1.6 1.6-3.2 4-3.2h8.8c18.4 0 28.8-8.8 31.2-26.4 1.6-7.2 0-13.6-3.2-17.6-4.8-4-12-6.4-20.8-6.4m3.2 26.4c-1.6 9.6-8.8 9.6-16 9.6H372l3.2-18.4c0-.8.8-1.6 2.4-1.6h1.6c4.8 0 9.6 0 12 3.2 1.6.8 1.6 3.2 1.6 7.2" fill="#139ad6"></path>
    <path d="M193.6 221.2h-27.2c-1.6 0-3.2 1.6-4 3.2l-11.2 70.4c0 1.6.8 2.4 2.4 2.4h12.8c1.6 0 3.2-1.6 4-3.2l3.2-19.2c0-1.6 1.6-3.2 4-3.2h8.8c18.4 0 28.8-8.8 31.2-26.4 1.6-7.2 0-13.6-3.2-17.6-4.8-4-11.2-6.4-20.8-6.4m3.2 26.4c-1.6 9.6-8.8 9.6-16 9.6h-4l3.2-18.4c0-.8.8-1.6 2.4-1.6h1.6c4.8 0 9.6 0 12 3.2.8.8 1.6 3.2.8 7.2m79.2-.8h-12.8c-.8 0-2.4.8-2.4 1.6l-.8 4-.8-1.6c-3.2-4-8.8-5.6-15.2-5.6-14.4 0-27.2 11.2-29.6 26.4-1.6 8 .8 15.2 4.8 20s9.6 6.4 16.8 6.4c12 0 18.4-7.2 18.4-7.2l-.8 4c0 1.6.8 2.4 2.4 2.4h12c1.6 0 3.2-1.6 4-3.2l7.2-44.8c-.8-.8-2.4-2.4-3.2-2.4m-18.4 25.6c-1.6 7.2-7.2 12.8-15.2 12.8-4 0-7.2-1.6-8.8-3.2-1.6-2.4-2.4-5.6-2.4-9.6.8-7.2 7.2-12.8 14.4-12.8 4 0 6.4 1.6 8.8 3.2 2.4 2.4 3.2 6.4 3.2 9.6" fill="#263b80"></path>
    <path d="M471.2 246.8h-12.8c-.8 0-2.4.8-2.4 1.6l-.8 4-.8-1.6c-3.2-4-8.8-5.6-15.2-5.6-14.4 0-27.2 11.2-29.6 26.4-1.6 8 .8 15.2 4.8 20s9.6 6.4 16.8 6.4c12 0 18.4-7.2 18.4-7.2l-.8 4c0 1.6.8 2.4 2.4 2.4h12c1.6 0 3.2-1.6 4-3.2l7.2-44.8c-.8-.8-1.6-2.4-3.2-2.4m-18.4 25.6c-1.6 7.2-7.2 12.8-15.2 12.8-4 0-7.2-1.6-8.8-3.2-1.6-2.4-2.4-5.6-2.4-9.6.8-7.2 7.2-12.8 14.4-12.8 4 0 6.4 1.6 8.8 3.2 3.2 2.4 4 6.4 3.2 9.6" fill="#139ad6"></path>
    <path d="M345.6 246.8H332c-1.6 0-2.4.8-3.2 1.6l-17.6 27.2-8-25.6c-.8-1.6-1.6-2.4-4-2.4h-12.8c-1.6 0-2.4 1.6-2.4 3.2l14.4 42.4-13.6 19.2c-.8 1.6 0 4 1.6 4h12.8c1.6 0 2.4-.8 3.2-1.6l44-63.2c2.4-2.4.8-4.8-.8-4.8" fill="#263b80"></path>
    <path d="M486.4 223.6l-11.2 72c0 1.6.8 2.4 2.4 2.4h11.2c1.6 0 3.2-1.6 4-3.2l11.2-70.4c0-1.6-.8-2.4-2.4-2.4h-12.8c-.8-.8-1.6 0-2.4 1.6" fill="#139ad6"></path>
    <path d="M92 197.2c-5.6-6.4-16-9.6-30.4-9.6h-40c-2.4 0-4.8 2.4-5.6 4.8L0 297.2c0 2.4 1.6 4 3.2 4H28l6.4-39.2v1.6c.8-2.4 3.2-4.8 5.6-4.8h12c23.2 0 40.8-9.6 46.4-36v-2.4c-.8 0-.8 0 0 0 .8-10.4-.8-16.8-6.4-23.2" fill="#263b80"></path>
    <path d="M97.6 220.4v2.4c-5.6 27.2-23.2 36-46.4 36h-12c-2.4 0-4.8 2.4-5.6 4.8l-8 48.8c0 1.6.8 3.2 3.2 3.2h20.8c2.4 0 4.8-1.6 4.8-4v-.8l4-24.8v-1.6c0-2.4 2.4-4 4.8-4h3.2c20 0 36-8 40-32 1.6-9.6.8-18.4-4-24-.8-1.6-2.4-3.2-4.8-4" fill="#139ad6"></path>
    <path d="M92 218c-.8 0-1.6-.8-2.4-.8s-1.6 0-2.4-.8c-3.2-.8-6.4-.8-10.4-.8H45.6c-.8 0-1.6 0-2.4.8-1.6.8-2.4 2.4-2.4 4L34.4 262v1.6c.8-2.4 3.2-4.8 5.6-4.8h12c23.2 0 40.8-9.6 46.4-36 0-.8 0-1.6.8-2.4-1.6-.8-2.4-1.6-4-1.6-2.4-.8-2.4-.8-3.2-.8" fill="#232c65"></path>
  </symbol>
  <symbol xmlns="http://www.w3.org/2000/svg" viewBox="0 0 333334 199007" shape-rendering="geometricPrecision" text-rendering="geometricPrecision" image-rendering="optimizeQuality" fill-rule="evenodd" clip-rule="evenodd" id="rupay_icon">
    <path d="M214088 83928h13199v20970l11418-20970h12113l-24422 42395s-2267 3556-5079 5437c-2310 1547-5151 1477-6019 1540-4824-42-10643-55-10643-55l2807-10106 4542-8s2079-212 2882-1237c765-977 1156-1954 1156-3387 0-2148-1954-34580-1954-34580zM76939 88116c-1837 4256-7533 3772-7533 3772l-6632-31 2421-9013s5933 22 8843 22c3115 0 4088 2502 2902 5249zm15073-6142c1129-8943-6741-11201-15250-11201H54402l-13199 48105h14208l4436-16333 7970 65s3289-191 3354 2898c69 3295-2442 9345-2280 13370h14596l-32-1281s-1213-322-1078-2026c56-709 839-2953 1864-5979 618-1334 1550-4499 1464-7076-107-3217-2126-4710-5037-5754 9074-2128 11342-14787 11343-14787zm3224 1954h12959l-5337 20533s-1331 4579 2952 4932c3384 280 5902-3758 6727-6493 1084-3592 5296-18973 5296-18973h13351l-10159 34950h-11657l1432-4993s-5947 7252-14783 6382c-7854-771-8531-6468-7170-13575 668-3489 6389-22763 6389-22763zm66557 4298c-1849 5158-6944 4550-6944 4550l-6956 2 2746-10220s4403 23 7311 23c3560 0 4852 2828 3843 5644zm14609-4776c1130-8944-5687-12678-14197-12678h-22359l-13198 48105h14208l3995-14831 11320 69s17530 742 20232-20665zm11945 28307c-2220 563-4912 869-5446-1148-1466-5527 11474-7145 11474-7145 88 5036-4325 7859-6029 8293zm19575-10116c1707-5814 3865-11319 2128-14370-2660-4670-7468-5080-14502-5080-7771 0-17365 1476-20492 11810h12937s1179-3892 6035-3647c4298 217 4063 3174 2479 4809-2778 2865-10450 1276-18947 4224-7424 2576-10022 12338-8409 16234 1563 3778 4474 4259 8401 4645 6307 620 11143-2897 13394-4961 0 2292 60 3572 60 3572h13614l-33-1281s-1213-322-1078-2026c98-1248 2450-7252 4412-13929z" fill="#382a8d"></path>
    <path fill="#1d8546" d="M267751 75852l-15239 53011 28524-26506z"></path>
    <path fill="#ec6b00" d="M257982 75852l-15239 53011 28525-26506z"></path>
    <path d="M286355 66228c-2896 0-5254 2357-5254 5254 0 2896 2357 5253 5254 5253 2896 0 5253-2357 5253-5253 0-2898-2357-5254-5253-5254zm-81 7409v-4095h817l968 2899c90 270 154 472 197 606 46-149 118-368 218-657l980-2848h728v4095h-522v-3428l-1190 3428h-488l-1185-3486v3486h-523zm-2721 0v-3611h-1348v-483h3245v483h-1354v3611h-543zm2802 3618c-3185 0-5774-2590-5774-5774s2590-5775 5774-5775c3183 0 5774 2591 5774 5775 0 3183-2591 5774-5774 5774z"></path>
    <path d="M31367 0h270601c8631 0 16474 3528 22156 9210 5683 5683 9211 13526 9211 22156v136275c0 8629-3529 16472-9211 22155-5683 5682-13526 9211-22155 9211H31368c-8629 0-16473-3528-22156-9211C3530 184114 2 176272 2 167641V31366c0-8631 3528-16474 9210-22156S22738 0 31369 0zm270601 10811H31367c-5647 0-10785 2315-14513 6043s-6043 8866-6043 14513v136275c0 5646 2315 10784 6043 14512 3729 3729 8867 6044 14513 6044h270601c5645 0 10783-2315 14512-6044 3728-3729 6044-8867 6044-14511V31368c0-5645-2315-10784-6043-14513-3728-3728-8867-6043-14513-6043z" fill="gray" fill-rule="nonzero"></path>
  </symbol>
  <symbol viewBox="0 0 512 512" xmlns="http://www.w3.org/2000/svg" id="paytm_icon">
    <path d="M393.8 200.9l4-3.2c13.9-11.8 31.7-10.5 43.6 3.5 1.2 1.4 1.8 1.5 3 .3.8-.9 1.7-1.6 2.5-2.5 9.3-9.1 21.6-11.8 33.1-6.7 12.1 5.4 18.6 14.9 18.7 28.2.2 28.7.1 57.3.1 86 0 10.2-6.3 16.6-16.4 16.6-4 0-8-.3-12 .1-4.1.4-5.3-.9-5.3-5.2.2-28 .1-56 .1-84v-3.5c-.1-6.5-2.7-9.2-8.9-9.5-5.6-.3-9.5 3.1-10.1 8.8-.1 1.3 0 2.7 0 4v72.5c0 10.6-6.1 16.8-16.7 16.7-5.4-.1-12.7 2.4-15.8-1.1-2.7-3-.9-10.1-.9-15.4V232c0-8.8-5.7-13.3-13.1-10.3-4.6 1.9-6.1 5.6-6.1 10.4.1 23.2 0 46.3 0 69.5v5.5c-.3 9.7-6.5 15.8-16.1 15.9-4 .1-8-.3-12 .1-4.3.4-5.6-.8-5.5-5.4.2-39.3.1-78.6.1-118 0-1.7.1-3.3 0-5-.2-2.2.7-2.9 2.9-2.9 9.2.1 18.3.1 27.5 0 2.3 0 3.4.6 3.2 3.1-.2 1.8 0 3.4.1 6z" fill="#02B9EF"></path>
    <path d="M181.8 255.1v41c-.1 17.8-9.4 27-27.2 27.1-7.8 0-15.7.1-23.5 0-15.8-.2-27.4-10.7-28.2-26.5-.6-11.3-.7-22.7-.1-34 .8-16.2 13.2-27.6 29.6-27.8 4.3-.1 8.7 0 13 0 4.2-.1 5.8-2.5 5.7-6.5 0-4-1.8-5.8-5.8-5.6-4.5.1-9 .1-13.5 0-11-.2-17.1-6.2-17-17 0-4.4-2-10.3.9-12.9 2.5-2.2 8.2-.8 12.5-.8 11.2-.1 22.3 0 33.5 0 11.9 0 20 8.1 20.1 20.1.1 14.2 0 28.6 0 42.9zm-30.6 22.7v-5c0-10.2 0-10.2-10.2-9.8-5.1.2-7.9 2.8-8 8.1-.1 4.2-.1 8.3 0 12.5.1 7.2 3.3 9.1 13.7 9.4 7.7.2 3.8-5.2 4.5-8.2.4-2.2-.1-4.7 0-7zm119.6-33.6c0 15.3.2 30.7-.1 46-.2 11.8-3 22.5-14.4 28.8-4.6 2.5-9.6 3.9-14.8 4-11.5.2-23 0-34.5.2-2.8 0-3.4-1-3.3-3.5.2-4.2-.1-8.3.1-12.5.2-8 6.3-14.1 14.3-14.4 5.2-.2 10.3-.1 15.5 0 4.2 0 6.5-1.7 6.5-6.2 0-4.6-2.2-6.2-6.4-6.3-7-.2-14 .8-20.9-1.2-11.9-3.5-20.6-13.4-20.9-25.7-.6-19.5-.2-39-.3-58.5 0-2.2.7-2.9 2.9-2.8 8.2.1 16.3.2 24.5 0 3.6-.1 3.1 1.9 3.1 4.1v44c0 6.4 3 9.8 8.6 10 6.6.2 9.5-2.5 9.5-9.2 0-14.8.1-29.7-.1-44.5 0-3.5.9-4.5 4.4-4.4 7.3.3 14.7.4 22 0 4-.2 4.6 1.3 4.5 4.8-.3 15.7-.2 31.5-.2 47.3zM16 266.9v-49c0-16 9.8-26 25.9-25.8 10.5.1 21-1.2 31.4.8 13.3 2.6 21.7 12.9 21.8 26.6.1 14.5 0 29 0 43.5 0 18.2-10.7 29.3-28.9 29.8-5.5.2-11 .1-16.5 0-2.5-.1-3.6.7-3.5 3.4.2 4 .1 8 0 12-.2 8.6-6.3 14.8-14.8 14.9-5 .1-11.3 2.1-14.5-.8-3-2.7-.8-9.1-.9-13.9-.1-13.8 0-27.7 0-41.5zm30.2-24.5v9.5c0 11.3 0 11.3 11.3 10.3 4.9-.4 7.2-2.8 7.3-7.7.1-5.6-.2-11.3.1-16.9.6-16.2-2.4-14.6-15.6-14.7-2.4 0-3.2.7-3.2 3.1.2 5.4.1 10.9.1 16.4z" fill="#06306F"></path>
    <path d="M299.1 267.1c0-13.3-.1-26.7.1-40 0-3.1-.7-4.4-4.1-4.3-4.5.2-10.5 1.5-13-.7-3.1-2.9-.7-9.1-1.1-13.9v-1c0-4.7-1.5-10.2.5-13.7s8.1-1.3 12.4-2.4c8.5-2.2 14.9-7.1 20.1-13.9 3.6-4.6 8.1-7.9 13.9-9 3.1-.6 5-.2 4.8 3.8-.3 5.6 0 11.3-.1 17-.1 2.4.8 3.2 3.2 3.1 4-.1 8 .1 12-.1 2.4-.1 3.2.8 3.1 3.2-.1 8.2-.1 16.3 0 24.5 0 2.3-.6 3.5-3.1 3.2-.5-.1-1 0-1.5 0-4.4.4-10.5-2-12.8 1-2.2 2.8-.8 8.6-.8 13.1 0 27.2-.1 54.3.1 81.5 0 3.8-1 5-4.8 4.7-3.6-.3-7.3 0-11-.1-10.8-.4-17.9-7.7-17.9-18.5v-37.5z" fill="#02B9EF"></path>
  </symbol>
</svg>